<svg width="800" height="800" viewBox="0 0 512 512" xmlns="http://www.w3.org/2000/svg"><path d="M413 282.988H99c-5.522 0-10-4.477-10-10v-113c0-5.523 4.478-10 10-10h314c5.522 0 10 4.477 10 10v113c0 5.523-4.478 10-10 10zm-304-20h294v-93H109v93z"/><path d="M378.687 282.988H136.001a9.997 9.997 0 01-9.578-12.872l12.498-41.682a10 10 0 019.579-7.127h215a10 10 0 019.397 6.581l14.946 41.075a9.973 9.973 0 01.843 4.026c.001 5.522-4.476 9.999-9.999 9.999zm-229.248-20h214.947l-7.89-21.682H155.941l-6.502 21.682zM148.001 198.655h-16.667c-5.522 0-10-4.477-10-10s4.478-10 10-10h16.667c5.522 0 10 4.477 10 10s-4.478 10-10 10zM159.334 362.012c-5.522 0-10-4.477-10-10v-44.714c0-5.523 4.478-10 10-10s10 4.477 10 10v44.714c0 5.523-4.478 10-10 10zM245.334 362.012c-5.522 0-10-4.477-10-10v-44.714c0-5.523 4.478-10 10-10s10 4.477 10 10v44.714c0 5.523-4.478 10-10 10zM331.334 362.012c-5.522 0-10-4.477-10-10v-44.714c0-5.523 4.478-10 10-10s10 4.477 10 10v44.714c0 5.523-4.478 10-10 10z"/></svg>